<?xml version="1.0" standalone="no"?>
<!DOCTYPE svg PUBLIC "-//W3C//DTD SVG 1.1//EN" "http://www.w3.org/Graphics/SVG/1.1/DTD/svg11.dtd" >
<svg xmlns="http://www.w3.org/2000/svg">
<metadata></metadata>
<defs>
<font id="kievit_otlight" horiz-adv-x="1536" >
<font-face units-per-em="2048" ascent="1556" descent="-492" />
<missing-glyph horiz-adv-x="475" />
<glyph horiz-adv-x="0" />
<glyph horiz-adv-x="0" />
<glyph horiz-adv-x="682" />
<glyph unicode="&#xd;" horiz-adv-x="475" />
<glyph unicode=" "  horiz-adv-x="475" />
<glyph unicode="&#x09;" horiz-adv-x="475" />
<glyph unicode="&#xa0;" horiz-adv-x="475" />
<glyph unicode="!" horiz-adv-x="532" d="M178 74q0 36 26 62t62 26q35 0 60.5 -25.5t25.5 -62.5t-25.5 -63.5t-60.5 -26.5t-61.5 26.5t-26.5 63.5zM201 1364h129l-23 -993h-82z" />
<glyph unicode="&#x22;" horiz-adv-x="591" d="M100 1364h138l-19 -438h-82zM354 1364h138l-37 -438h-82z" />
<glyph unicode="#" horiz-adv-x="1161" d="M49 469l12 86h281l45 299h-281l13 84h280l66 426h88l-66 -426h267l65 426h86l-63 -426h270l-14 -84h-271l-45 -299h273l-13 -86h-272l-72 -469h-86l70 469h-266l-70 -469h-88l72 469h-281zM430 555h264l45 299h-266z" />
<glyph unicode="$" horiz-adv-x="1003" d="M90 115l62 78q131 -116 319 -121v598q-47 24 -75 39t-68 39.5t-64 45t-51 50t-41.5 59.5t-24.5 69.5t-10 84.5q0 141 92.5 227t239.5 100v222h88v-220q186 -13 305 -106l-55 -82q-106 79 -254 92v-540q44 -22 72.5 -37.5t68.5 -40.5t65.5 -47.5t54.5 -54.5t46 -65t28 -76 t11 -91q0 -141 -93.5 -236.5t-250.5 -117.5v-230h-86v223q-128 1 -222.5 41t-156.5 97zM248 1063q0 -51 15.5 -91.5t49 -73t68 -55.5t90.5 -52v495q-100 -9 -161.5 -68.5t-61.5 -154.5zM553 80q107 19 171 88.5t64 165.5q0 52 -18 96t-53 79.5t-72.5 61.5t-91.5 56v-547z " />
<glyph unicode="%" horiz-adv-x="1650" d="M74 1042q0 63 21.5 122.5t62 108t106.5 78t146 29.5q82 0 148 -29.5t106.5 -78t62 -107.5t21.5 -121q0 -63 -22 -122.5t-62.5 -108t-106 -77.5t-145.5 -29q-82 0 -148 29t-106.5 77t-62 107t-21.5 122zM170 1044q0 -108 67 -182t175 -74q105 0 172 73.5t67 180.5 q0 109 -67 182.5t-174 73.5t-173.5 -73t-66.5 -181zM330 0l882 1364h105l-883 -1364h-104zM903 324q0 63 21.5 122.5t62 108t106.5 78t146 29.5q82 0 148 -29.5t106.5 -78t62 -107.5t21.5 -121q0 -86 -37 -162t-116 -127t-185 -51q-81 0 -147 29.5t-106 78.5t-61.5 108 t-21.5 122zM997 326q0 -108 68 -182t176 -74q105 0 172.5 74t67.5 180q0 108 -67.5 181t-174.5 73t-174.5 -73t-67.5 -179z" />
<glyph unicode="&#x26;" horiz-adv-x="1251" d="M84 344q0 55 14 102.5t37.5 85.5t62 74t80.5 65t99 62q-99 105 -145 183.5t-46 164.5q0 136 98.5 220.5t245.5 84.5q135 0 227.5 -78.5t92.5 -199.5q0 -117 -81.5 -206.5t-236.5 -178.5l404 -418q90 137 121 332l100 -19q-34 -220 -153 -382l227 -236h-144l-153 158 q-173 -181 -408 -181q-199 0 -320.5 107t-121.5 260zM195 350q0 -116 90 -196t245 -80q99 0 186.5 41.5t153.5 109.5l-432 445q-118 -67 -180.5 -140t-62.5 -180zM299 1087q0 -71 39.5 -137t134.5 -164q132 75 201 148.5t69 169.5q0 79 -61 135.5t-154 56.5 q-100 0 -164.5 -59.5t-64.5 -149.5z" />
<glyph unicode="'" horiz-adv-x="346" d="M104 1364h140l-29 -438h-84z" />
<glyph unicode="(" horiz-adv-x="606" d="M123 565q0 259 96 490.5t277 419.5h102q-367 -392 -367 -908q0 -528 367 -938h-102q-373 400 -373 936z" />
<glyph unicode=")" horiz-adv-x="606" d="M8 -371q367 392 367 908q0 528 -367 938h103q372 -399 372 -936q0 -262 -95 -492t-277 -418h-103z" />
<glyph unicode="*" horiz-adv-x="901" d="M100 1081l29 82l279 -96l-7 297h97l-6 -299l280 100l29 -84l-287 -88l178 -237l-69 -51l-172 243l-172 -243l-72 51l178 237z" />
<glyph unicode="+" horiz-adv-x="1193" d="M92 500v90h457v442h102v-440h451v-92h-451v-467h-102v467h-457z" />
<glyph unicode="," horiz-adv-x="403" d="M66 -213q96 84 96 158q0 31 -23.5 68.5t-23.5 70.5q0 37 24.5 61.5t59.5 24.5q39 0 66.5 -29t27.5 -78q0 -92 -54 -178t-128 -143z" />
<glyph unicode="-" horiz-adv-x="616" d="M113 545v94h391v-94h-391z" />
<glyph unicode="." horiz-adv-x="389" d="M102 78q0 38 28 65t65 27q38 0 65 -27t27 -65q0 -40 -27 -68t-65 -28q-37 0 -65 28.5t-28 67.5z" />
<glyph unicode="/" horiz-adv-x="788" d="M-8 -330l651 1805h102l-649 -1805h-104z" />
<glyph unicode="0" horiz-adv-x="1214" d="M109 682q0 105 16 202t53.5 189.5t93 161t141.5 110t193 41.5q106 0 192 -42t142 -110.5t94.5 -161t55 -190t16.5 -200.5t-16.5 -201t-55 -190.5t-94.5 -161.5t-142 -110.5t-192 -41.5t-191.5 42t-141.5 111t-94 161.5t-54 190t-16 200.5zM223 682q0 -96 13.5 -183.5 t43.5 -166.5t73.5 -136.5t108.5 -91.5t144 -34q99 0 175 51t120.5 139t67 194.5t22.5 227.5t-22.5 227.5t-67.5 194.5t-121 139t-174 51q-99 0 -175 -51t-120 -138.5t-66 -194t-22 -228.5z" />
<glyph unicode="1" horiz-adv-x="667" d="M51 1262l309 102h95v-1364h-109v1262l-270 -93z" />
<glyph unicode="2" horiz-adv-x="1001" d="M78 0v61q22 23 83.5 88.5t90.5 96.5t87 95.5t89 101.5t79.5 98.5t75.5 103t60.5 97t50.5 99.5t29 92t12 91q0 127 -70.5 197.5t-189.5 70.5q-174 0 -311 -137l-58 68q155 163 375 163q168 0 269.5 -93.5t101.5 -254.5q0 -101 -42.5 -208t-144.5 -240.5t-163.5 -204 t-205.5 -224.5q-40 -44 -60 -65h647v-96h-805z" />
<glyph unicode="3" horiz-adv-x="925" d="M63 1245q61 61 150.5 101t204.5 40q163 0 252.5 -83t89.5 -211q0 -65 -28 -122.5t-74.5 -99t-100 -70.5t-111.5 -44v-2q60 -6 122 -33t115.5 -71t87.5 -111t34 -144q0 -135 -71 -231t-187.5 -141.5t-265.5 -45.5q-115 0 -187 15l17 96q83 -16 170 -16q185 0 297 82.5 t112 234.5q0 105 -62.5 176.5t-163.5 103t-233 31.5v82q70 1 143 22.5t134 59.5t100 96t39 125q0 92 -63 147.5t-172 55.5q-98 0 -167 -29t-130 -83z" />
<glyph unicode="4" horiz-adv-x="1052" d="M55 326v88l633 950h109v-940h194v-98h-194v-326h-105v326h-637zM176 424h514v776z" />
<glyph unicode="5" horiz-adv-x="888" d="M92 -14l14 96q80 -10 107 -10q95 0 177.5 22.5t147.5 65t102.5 112t37.5 156.5q0 88 -33.5 153t-93.5 103t-135.5 56t-167.5 18q-63 0 -103 -4l39 610h574v-96h-475l-27 -416h18q234 -3 376.5 -111.5t142.5 -304.5q0 -147 -79 -252.5t-209.5 -156t-297.5 -50.5 q-70 0 -115 9z" />
<glyph unicode="6" horiz-adv-x="1032" d="M109 545q0 189 52 344.5t149.5 266.5t244 172t328.5 61l18 -89q-291 0 -465 -155.5t-209 -450.5q54 54 139.5 88.5t176.5 34.5q186 0 295.5 -117t109.5 -301q0 -115 -47 -210t-141.5 -153.5t-220.5 -58.5q-89 0 -163 33.5t-122.5 89t-82 130t-48 153.5t-14.5 162z M219 545q0 -99 19 -183t57.5 -150t102.5 -104t147 -38q73 0 130 27.5t91.5 74t52 103t17.5 118.5q0 155 -77 243.5t-224 88.5q-183 0 -316 -123v-57z" />
<glyph unicode="7" horiz-adv-x="903" d="M51 1268v96h750v-82l-502 -1329l-100 37l487 1278h-635z" />
<glyph unicode="8" horiz-adv-x="970" d="M96 326q0 64 24.5 122.5t69 107t93.5 86.5t112 75q-63 40 -104 71.5t-81 74t-59.5 93t-19.5 109.5q0 139 102 230t256 91q160 0 257.5 -87.5t97.5 -227.5q0 -59 -22 -110t-66 -94t-86.5 -73.5t-106.5 -68.5q66 -38 115.5 -74.5t97 -85t73 -107.5t25.5 -124 q0 -157 -108.5 -257t-284.5 -100q-181 0 -283 100t-102 249zM209 332q0 -113 74 -186.5t202 -73.5q126 0 200.5 75t74.5 187q0 52 -23 100.5t-67.5 91t-90 75.5t-108.5 71q-59 -38 -99.5 -70t-81 -74.5t-61 -91.5t-20.5 -104zM242 1067q0 -48 18.5 -90t56.5 -78.5t75.5 -64 t94.5 -62.5q59 37 95.5 63.5t75 63.5t57 78t18.5 88q0 97 -65.5 162t-178.5 65q-114 0 -180.5 -63.5t-66.5 -161.5z" />
<glyph unicode="9" horiz-adv-x="1032" d="M86 965q0 178 111 299.5t299 121.5q110 0 195.5 -49.5t135 -132t74.5 -180t25 -203.5q0 -191 -48 -348t-140.5 -271.5t-236.5 -177.5t-329 -63l-20 88q283 0 451 160t202 459q-54 -54 -137 -86.5t-176 -32.5q-185 0 -295.5 116.5t-110.5 299.5zM197 971q0 -155 78 -242.5 t225 -87.5q188 0 313 119q0 7 1 29.5t1 29.5q0 99 -19 183t-57.5 150t-102.5 104t-147 38q-73 0 -130 -27.5t-91.5 -74t-52.5 -103t-18 -118.5z" />
<glyph unicode=":" horiz-adv-x="395" d="M104 78q0 39 28 66.5t65 27.5q38 0 65 -27t27 -67q0 -39 -27 -67.5t-65 -28.5q-37 0 -65 29t-28 67zM104 899q0 39 28 66.5t65 27.5q38 0 65 -27t27 -67q0 -38 -27 -66t-65 -28q-37 0 -65 28t-28 66z" />
<glyph unicode=";" horiz-adv-x="403" d="M66 -213q96 84 96 158q0 31 -23.5 68.5t-23.5 70.5q0 37 24.5 61.5t59.5 24.5q39 0 66.5 -29t27.5 -78q0 -92 -54 -178t-128 -143zM111 899q0 40 27 67t65 27q37 0 63.5 -27.5t26.5 -66.5q0 -38 -26.5 -66t-63.5 -28q-38 0 -65 28t-27 66z" />
<glyph unicode="&#x3c;" horiz-adv-x="716" d="M55 504l506 446l64 -65l-430 -377l430 -377l-64 -70z" />
<glyph unicode="=" horiz-adv-x="933" d="M72 342v92h788v-92h-788zM72 657v95h788v-95h-788z" />
<glyph unicode="&#x3e;" horiz-adv-x="716" d="M92 127l430 377l-430 377l62 69l505 -442l-505 -447z" />
<glyph unicode="?" horiz-adv-x="798" d="M96 1335q42 23 102 37t113 14q183 0 281 -86.5t98 -246.5q0 -57 -15 -107t-37 -85.5t-55 -68.5t-60 -53t-62 -41q-73 -47 -101 -93.5t-28 -119.5v-123h-101v136q0 92 36 154t126 118q43 27 71.5 49.5t57.5 55.5t43.5 76t14.5 96q0 126 -72.5 185.5t-204.5 59.5 q-92 0 -166 -41zM197 74q0 36 26 62t62 26q35 0 60.5 -25.5t25.5 -62.5t-25.5 -63.5t-60.5 -26.5t-61.5 26.5t-26.5 63.5z" />
<glyph unicode="@" horiz-adv-x="1538" d="M86 492q0 205 96.5 380t265 279t369.5 104q147 0 270 -51.5t202.5 -137t123 -193t43.5 -222.5q0 -120 -43 -229t-123 -179.5t-176 -70.5q-93 0 -146 66.5t-53 169.5q0 21 5 51h-5q-46 -124 -125.5 -205.5t-175.5 -81.5q-84 0 -132 70t-48 164q0 98 30 193.5t83 173 t135 125.5t178 48q88 0 217 -47l-53 -256q-27 -142 -27 -215q0 -72 34.5 -121t88.5 -49q70 0 128 57.5t89 145t31 180.5q0 232 -154.5 381t-398.5 149q-122 0 -237.5 -53.5t-202 -143t-139 -215.5t-52.5 -263q0 -165 68 -297t200 -210.5t306 -78.5q85 0 173 18t138 43 l35 -75q-60 -29 -159 -50.5t-202 -21.5q-151 0 -276 53t-207.5 144t-128 212.5t-45.5 258.5zM541 420q0 -61 23.5 -108.5t72.5 -47.5q50 0 97.5 38t82 94.5t65.5 133t50.5 142t34.5 133.5l8 37q-19 8 -59 17t-66 9q-86 0 -158 -65t-111.5 -167.5t-39.5 -215.5z" />
<glyph unicode="A" horiz-adv-x="1245" d="M45 0l520 1364h115l520 -1364h-119l-139 369h-647l-137 -369h-113zM332 465h573l-287 766z" />
<glyph unicode="B" horiz-adv-x="1140" d="M205 0v1364h311q445 0 445 -336q0 -119 -67.5 -197.5t-182.5 -105.5v-4q137 -25 224 -113.5t87 -228.5q0 -379 -506 -379h-311zM315 96h199q201 0 297 68t96 213q0 141 -96.5 218t-290.5 77h-205v-576zM315 766h191q342 0 342 256q0 128 -83.5 187t-256.5 59h-193v-502z " />
<glyph unicode="C" horiz-adv-x="1249" d="M111 684q0 140 45.5 266.5t128.5 223.5t208.5 154.5t274.5 57.5q213 0 365 -100l-58 -86q-132 92 -311 92q-125 0 -228 -49.5t-169.5 -133t-103 -192.5t-36.5 -229q0 -98 22.5 -188.5t68 -168t109.5 -135t151.5 -90t189.5 -32.5q203 0 342 119l55 -80q-66 -60 -170.5 -98 t-230.5 -38q-149 0 -274 57.5t-207 155.5t-127 225.5t-45 268.5z" />
<glyph unicode="D" horiz-adv-x="1366" d="M205 0v1364h295q369 0 564.5 -177t195.5 -493q0 -319 -197.5 -506.5t-566.5 -187.5h-291zM317 94h187q307 0 473 153t166 443q0 289 -165.5 434.5t-481.5 145.5h-179v-1176z" />
<glyph unicode="E" horiz-adv-x="1009" d="M205 0v1364h669v-96h-557v-492h490v-96h-490v-584h572v-96h-684z" />
<glyph unicode="F" horiz-adv-x="987" d="M205 0v1364h690v-96h-578v-492h502v-96h-502v-680h-112z" />
<glyph unicode="G" horiz-adv-x="1435" d="M111 684q0 112 28.5 216t85.5 192t136 154t186 103t229 37q249 0 408 -120l-62 -84q-140 110 -350 110q-129 0 -234.5 -49.5t-172 -134t-102.5 -192.5t-36 -228q0 -121 36 -230.5t103 -195.5t173 -137t235 -51q251 0 383 102v420h-315v96h426v-571q-80 -68 -210 -106 t-288 -38q-151 0 -277 58t-208.5 156t-128 225.5t-45.5 267.5z" />
<glyph unicode="H" horiz-adv-x="1466" d="M205 0v1364h112v-594h832v594h113v-1364h-113v674h-832v-674h-112z" />
<glyph unicode="I" horiz-adv-x="534" d="M211 0v1364h113v-1364h-113z" />
<glyph unicode="J" horiz-adv-x="536" d="M-29 -362l19 96q26 -13 71 -13q164 0 164 261v1382h113v-1403q0 -164 -69.5 -252t-202.5 -88q-65 0 -95 17z" />
<glyph unicode="K" horiz-adv-x="1116" d="M205 0v1364h110v-1364h-110zM336 711l565 653h135l-565 -647l606 -717h-143z" />
<glyph unicode="L" horiz-adv-x="937" d="M205 0v1364h112v-1268h547v-96h-659z" />
<glyph unicode="M" horiz-adv-x="1728" d="M123 0l184 1364h107l448 -1229l453 1229h108l183 -1364h-113l-152 1161l-423 -1161h-113l-430 1159l-146 -1159h-106z" />
<glyph unicode="N" horiz-adv-x="1435" d="M203 0v1364h110l813 -1178v1178h107v-1364h-105l-821 1186v-1186h-104z" />
<glyph unicode="O" d="M111 680q0 142 45.5 269.5t128.5 225t208 154.5t275 57q148 0 273 -56.5t208.5 -153t129.5 -224t46 -268.5q0 -142 -46 -270t-129 -225t-208 -154.5t-274 -57.5t-274 57t-208 153.5t-129 223.5t-46 269zM227 684q0 -98 23 -189t69 -167.5t110.5 -134t151.5 -89.5t187 -32 q124 0 227.5 49t171 132.5t105 193.5t37.5 233t-37.5 233.5t-105 195t-171 134t-227.5 49.5t-227.5 -49t-171 -132.5t-105 -193.5t-37.5 -233z" />
<glyph unicode="P" horiz-adv-x="1067" d="M205 0v1364h297q217 0 342 -101.5t125 -283.5q0 -187 -125.5 -293t-354.5 -106h-172v-580h-112zM317 676h170q188 0 277.5 79t89.5 220q0 135 -88 214t-274 79h-175v-592z" />
<glyph unicode="Q" d="M111 680q0 142 45.5 269.5t128.5 225t208 154.5t275 57q148 0 273 -56.5t208.5 -153t129.5 -224t46 -268.5q0 -172 -63.5 -320t-188 -249t-290.5 -127q90 -112 175 -164.5t202 -52.5q102 0 163 53l45 -80q-30 -30 -86 -48t-125 -18q-141 0 -256.5 70t-244.5 229 q-146 2 -268.5 59.5t-204 153.5t-127 222.5t-45.5 267.5zM227 684q0 -98 23 -189t69 -167.5t110.5 -134t151.5 -89.5t187 -32q124 0 227.5 49t171 132.5t105 193.5t37.5 233t-37.5 233.5t-105 195t-171 134t-227.5 49.5t-227.5 -49t-171 -132.5t-105 -193.5t-37.5 -233z" />
<glyph unicode="R" horiz-adv-x="1126" d="M205 0v1364h321q210 0 327.5 -90t117.5 -260q0 -164 -109.5 -252t-294.5 -94h-16v-2q20 -10 48 -41.5t85 -108.5l379 -516h-135l-334 459q-69 95 -106.5 135.5t-63.5 52.5t-70 12h-37v-659h-112zM317 754h205q164 0 249 65.5t85 192.5q0 256 -342 256h-197v-514z" />
<glyph unicode="S" horiz-adv-x="1003" d="M90 115l62 78q136 -121 327 -121q135 0 221 76t86 186q0 62 -25 112.5t-75.5 91t-98 68.5t-119.5 65q-5 2 -7 3q-64 33 -100 53t-85 57t-75 72t-45 87t-19 114q0 153 108.5 241t270.5 88q207 0 346 -106l-55 -82q-127 94 -293 94q-117 0 -191.5 -62.5t-74.5 -166.5 q0 -29 4.5 -54t16.5 -47.5t23.5 -39.5t34 -36t38 -31t47 -30t49.5 -28t55 -29q151 -76 211 -119q162 -116 171 -287q1 -12 1 -24q0 -159 -117.5 -260t-308.5 -101q-230 0 -383 138z" />
<glyph unicode="T" horiz-adv-x="983" d="M43 1268v96h897v-96h-391v-1268h-113v1268h-393z" />
<glyph unicode="U" horiz-adv-x="1394" d="M193 512v852h112v-840q0 -448 400 -448q195 0 293 115.5t98 318.5v854h106v-848q0 -257 -124 -398t-378 -141q-259 0 -383 141.5t-124 393.5z" />
<glyph unicode="V" horiz-adv-x="1228" d="M43 1364h121l457 -1227l452 1227h113l-510 -1364h-115z" />
<glyph unicode="W" horiz-adv-x="1765" d="M51 1364h121l307 -1186l352 1186h115l346 -1178l312 1178h110l-371 -1364h-104l-354 1202l-361 -1202h-102z" />
<glyph unicode="X" horiz-adv-x="1122" d="M57 0l437 707l-412 657h129l352 -563l340 563h123l-405 -657l444 -707h-129l-385 612l-371 -612h-123z" />
<glyph unicode="Y" horiz-adv-x="1099" d="M41 1364h127l387 -737h4l387 737h115l-453 -850v-514h-110v514z" />
<glyph unicode="Z" horiz-adv-x="1140" d="M94 0v86l787 1184h-748v94h881v-76l-799 -1194h825v-94h-946z" />
<glyph unicode="[" horiz-adv-x="604" d="M174 -330v1805h377v-86h-272v-1633h272v-86h-377z" />
<glyph unicode="\" horiz-adv-x="788" d="M18 1475h103l651 -1805h-104z" />
<glyph unicode="]" horiz-adv-x="604" d="M53 -244h273v1633h-273v86h377v-1805h-377v86z" />
<glyph unicode="^" horiz-adv-x="1181" d="M129 590l420 774h82l420 -774h-101l-360 659l-359 -659h-102z" />
<glyph unicode="_" horiz-adv-x="780" d="M-2 -217h784v-90h-784v90z" />
<glyph unicode="`" horiz-adv-x="1024" d="M332 1356h160l198 -250h-94z" />
<glyph unicode="a" horiz-adv-x="937" d="M98 229q0 93 47.5 161.5t127 104.5t164 52t177.5 16h45v111q0 120 -52 175.5t-163 55.5q-142 0 -254 -104l-57 73q131 125 320 125q153 0 233 -77.5t80 -233.5v-491q0 -129 20 -197h-106q-10 51 -14 123q-52 -67 -130.5 -106.5t-164.5 -39.5q-122 0 -197.5 69t-75.5 183z M209 233q0 -75 53 -119t123 -44q159 0 274 147v262h-45q-86 0 -156.5 -13t-127.5 -41t-89 -77t-32 -115z" />
<glyph unicode="b" horiz-adv-x="1040" d="M176 51v1424h107v-588q45 51 113.5 81.5t142.5 30.5q135 0 230 -68t139 -180.5t44 -258.5q0 -138 -57.5 -254.5t-169 -188.5t-256.5 -72q-181 0 -293 74zM283 109q76 -39 190 -39q89 0 161 36.5t116 96.5t67 133t23 151q0 84 -17 155.5t-53 131.5t-100 94.5t-150 34.5 q-62 0 -128.5 -31.5t-108.5 -78.5v-684z" />
<glyph unicode="c" horiz-adv-x="886" d="M88 489q0 230 119.5 370t310.5 140q176 0 291 -102l-55 -78q-103 88 -238 88q-105 0 -177.5 -57.5t-105 -148.5t-32.5 -207q0 -84 19 -158.5t56 -134.5t98 -95.5t140 -35.5q77 0 144.5 27t105.5 61l47 -80q-47 -42 -124.5 -71.5t-178.5 -29.5q-102 0 -183.5 43 t-132.5 115t-77.5 163t-26.5 191z" />
<glyph unicode="d" horiz-adv-x="1044" d="M88 487q0 141 52 257t152.5 185.5t231.5 69.5q152 0 242 -84v560h106v-1291q0 -102 23 -184h-109q-14 58 -14 113q-50 -64 -123.5 -100t-156.5 -36q-192 0 -298 140.5t-106 369.5zM201 492q0 -86 17 -159t52 -132.5t96.5 -93t143.5 -33.5q68 0 139 36t117 97v610 q-93 90 -236 90q-106 0 -182.5 -60t-111.5 -152t-35 -203z" />
<glyph unicode="e" horiz-adv-x="976" d="M88 498q0 139 50 252t146.5 181t223.5 68q172 0 270.5 -117.5t98.5 -308.5q0 -26 -3 -53h-673v-22q1 -87 20 -161.5t57.5 -135.5t103 -96t148.5 -35q85 0 160.5 27.5t122.5 64.5l45 -84q-137 -101 -332 -101q-109 0 -194 41.5t-137.5 114t-79.5 165t-27 200.5zM207 608 h561q-1 57 -16.5 109t-46 95.5t-82.5 69t-119 25.5q-122 0 -198 -83t-99 -216z" />
<glyph unicode="f" horiz-adv-x="614" d="M43 891v86h170v164q0 169 85 262.5t245 93.5q88 0 149 -27l-28 -94q-52 27 -125 27q-110 0 -166 -68.5t-56 -201.5v-156h254v-86h-254v-891h-104v891h-170z" />
<glyph unicode="g" horiz-adv-x="997" d="M84 -207q0 91 56.5 164t135.5 111v2q-46 20 -73 57.5t-27 89.5q0 99 109 160v4q-76 40 -120 115t-44 170q0 147 97.5 240t256.5 93q70 0 141 -22h308v-86h-185q95 -98 95 -223q0 -148 -100.5 -240t-260.5 -92q-57 0 -106 14q-39 -19 -62.5 -48t-23.5 -62q0 -56 46 -79 t158 -28q177 -7 250 -25q167 -40 193 -179q6 -29 6 -62q0 -100 -64.5 -179.5t-172.5 -122t-238 -42.5q-169 0 -272 71.5t-103 198.5zM190 -193q0 -88 73 -142t206 -54q152 0 254 68t102 174q0 40 -11.5 70.5t-32.5 49t-47.5 30.5t-59.5 17.5t-64 8t-66 4.5h-7 q-120 4 -179 14q-79 -41 -123.5 -104.5t-44.5 -135.5zM229 668q0 -107 68.5 -175.5t179.5 -68.5q112 0 180 68t68 174q0 108 -69.5 176.5t-182.5 68.5q-111 0 -177.5 -68t-66.5 -175z" />
<glyph unicode="h" horiz-adv-x="1060" d="M176 0v1475h107v-654q47 68 130.5 123t192.5 55q145 0 215 -83.5t70 -223.5v-692h-107v670q0 113 -47 173t-153 60q-66 0 -134 -38.5t-106 -78.5t-61 -75v-711h-107z" />
<glyph unicode="i" horiz-adv-x="481" d="M160 1266q0 35 23.5 58.5t56.5 23.5q34 0 58 -23.5t24 -58.5t-24 -59.5t-58 -24.5q-33 0 -56.5 24.5t-23.5 59.5zM186 0v977h109v-977h-109z" />
<glyph unicode="j" horiz-adv-x="468" d="M-53 -455l18 90q24 -12 66 -12q83 0 117 63.5t34 186.5v1104h107v-1127q0 -148 -61.5 -233.5t-192.5 -85.5q-65 0 -88 14zM152 1266q0 35 24 58.5t57 23.5q34 0 58 -23.5t24 -58.5t-24 -59.5t-58 -24.5q-33 0 -57 24.5t-24 59.5z" />
<glyph unicode="k" horiz-adv-x="921" d="M176 0v1475h107v-1475h-107zM293 549l428 428h133l-432 -428l455 -549h-134z" />
<glyph unicode="l" horiz-adv-x="471" d="M182 0v1475h107v-1475h-107z" />
<glyph unicode="m" horiz-adv-x="1601" d="M180 0v977h107v-154q122 176 305 176q105 0 167.5 -49.5t82.5 -132.5q137 182 319 182q139 0 204 -82.5t65 -224.5v-692h-107v670q0 112 -42 172.5t-142 60.5q-87 0 -160.5 -54.5t-120.5 -123.5v-725h-106v670q0 113 -43 173t-140 60q-49 0 -97.5 -21.5t-85 -54 t-60.5 -61.5t-39 -55v-711h-107z" />
<glyph unicode="n" horiz-adv-x="1064" d="M180 0v977h107v-156q58 79 142 128.5t181 49.5q145 0 214 -83t69 -224v-692h-107v670q0 113 -46 173t-152 60q-86 0 -168 -57t-133 -135v-711h-107z" />
<glyph unicode="o" horiz-adv-x="1058" d="M86 487q0 96 26 184.5t77 163t138 119.5t197 45q111 0 199 -44.5t141.5 -118t81 -162t27.5 -182.5q0 -75 -16.5 -148t-52.5 -139.5t-87.5 -117t-126.5 -80.5t-164 -30q-111 0 -197.5 44.5t-138 119t-78 162.5t-26.5 184zM199 492q0 -114 35 -207.5t111.5 -154 t182.5 -60.5q107 0 184 59t112.5 151.5t35.5 206.5q0 112 -37.5 206t-116.5 154t-186 60q-65 0 -118.5 -22t-90.5 -61t-62.5 -91.5t-37.5 -113t-12 -127.5z" />
<glyph unicode="p" horiz-adv-x="1052" d="M180 -449v1426h107v-107q45 57 116 93t160 36q128 0 220 -65.5t137 -179t45 -262.5q0 -142 -51.5 -258t-152.5 -186.5t-233 -70.5q-149 0 -241 84v-510h-107zM287 160q40 -40 101 -65t134 -25q106 0 182.5 60t112 152.5t35.5 204.5q0 85 -17.5 158t-53 132t-96 92.5 t-140.5 33.5q-79 0 -148.5 -41t-109.5 -92v-610z" />
<glyph unicode="q" horiz-adv-x="1044" d="M88 485q0 103 34.5 196t96 163.5t153 112.5t199.5 42q100 0 176.5 -22t116.5 -49v-1372h-106v534q-41 -48 -110 -80.5t-144 -32.5q-102 0 -182.5 39.5t-131 109t-76.5 160.5t-26 199zM201 489q0 -66 10.5 -125t34.5 -113t60 -92.5t90.5 -61.5t123.5 -23t137.5 36 t100.5 76v680q-85 41 -191 41q-89 0 -161 -36.5t-115.5 -97t-66.5 -133.5t-23 -151z" />
<glyph unicode="r" horiz-adv-x="669" d="M180 0v977h107v-170q16 31 38 61t54.5 61.5t77 50.5t92.5 19q51 0 94 -16l-27 -100q-37 14 -79 14q-38 0 -75 -17.5t-63.5 -42t-51 -57t-37 -55.5t-23.5 -45v-680h-107z" />
<glyph unicode="s" horiz-adv-x="804" d="M84 70l47 82q38 -32 108.5 -57t143.5 -25q100 0 159.5 44.5t59.5 123.5q0 39 -15 69.5t-50.5 56.5t-67 43t-92.5 44q-65 27 -107 50.5t-83 57.5t-61 80t-20 104q0 113 77.5 184.5t211.5 71.5q91 0 162.5 -27.5t114.5 -62.5l-54 -78q-97 76 -225 76q-87 0 -134.5 -42 t-47.5 -115q0 -33 12.5 -60.5t28 -46t48.5 -38.5t55.5 -30.5t66.5 -29.5q54 -23 89 -40.5t76.5 -45t65 -55.5t40 -68t16.5 -86q0 -126 -89.5 -200.5t-238.5 -74.5q-89 0 -168.5 28t-128.5 67z" />
<glyph unicode="t" horiz-adv-x="675" d="M55 891v86h164v278h107v-278h252v-86h-252v-666q0 -79 27 -117t91 -38q38 0 78 15.5t58 29.5l41 -80q-84 -58 -189 -58q-106 0 -159.5 62t-53.5 180v672h-164z" />
<glyph unicode="u" horiz-adv-x="1062" d="M170 287v690h106v-668q0 -114 46.5 -174.5t154.5 -60.5q51 0 102.5 21.5t90 54.5t65.5 63t41 55v709h107v-789q0 -121 18 -188h-108q-15 82 -15 160q-27 -43 -67 -81t-109.5 -70t-146.5 -32q-146 0 -215.5 84.5t-69.5 225.5z" />
<glyph unicode="v" horiz-adv-x="905" d="M35 977h115l305 -842l303 842h110l-364 -977h-98z" />
<glyph unicode="w" horiz-adv-x="1398" d="M39 977h115l237 -813l256 813h105l256 -815l239 815h107l-295 -977h-98l-265 823l-264 -823h-98z" />
<glyph unicode="x" horiz-adv-x="905" d="M47 0l344 508l-323 469h122q255 -375 263 -385l254 385h114l-315 -463l352 -514h-121l-295 430l-280 -430h-115z" />
<glyph unicode="y" horiz-adv-x="921" d="M29 -463l14 90q42 -6 68 -6q98 0 152.5 58.5t103.5 187.5l49 139l-367 971h117l307 -838l301 838h113l-420 -1118q-24 -63 -44 -105.5t-51 -89t-65.5 -73.5t-85 -44.5t-112.5 -17.5q-48 0 -80 8z" />
<glyph unicode="z" horiz-adv-x="839" d="M88 0v76l522 813h-491v88h620v-80l-526 -809h537v-88h-662z" />
<glyph unicode="{" horiz-adv-x="702" d="M59 541v86q95 2 160.5 63.5t65.5 163.5v401q0 103 57 161.5t147 58.5h158v-86h-137q-66 0 -93.5 -43t-27.5 -121v-387q0 -104 -59.5 -167t-151.5 -83v-2q93 -22 152 -87t59 -171v-414q0 -77 27 -117.5t92 -40.5h139v-86h-158q-91 0 -147.5 58.5t-56.5 162.5v422 q0 101 -65.5 163.5t-160.5 64.5z" />
<glyph unicode="|" horiz-adv-x="577" d="M248 -512v2048h82v-2048h-82z" />
<glyph unicode="}" horiz-adv-x="702" d="M53 -244h140q66 0 93 42.5t27 121.5v412q0 103 59 166t152 82v4q-93 20 -152 85.5t-59 170.5v391q0 78 -26.5 118t-93.5 40h-140v86h158q91 0 149 -59t58 -163v-399q0 -101 64.5 -163t160.5 -64v-86q-96 -2 -160.5 -63.5t-64.5 -164.5v-424q0 -103 -57 -161t-148 -58 h-160v86z" />
<glyph unicode="~" horiz-adv-x="1202" d="M119 506q47 47 114.5 81t139.5 34q54 0 104.5 -15.5t90 -37.5t78.5 -44t87.5 -37.5t100.5 -15.5q100 0 198 88l51 -67q-51 -51 -119.5 -84t-138.5 -33q-60 0 -114 15.5t-95 37.5t-79 44.5t-82.5 38t-89.5 15.5q-101 0 -193 -88z" />
<glyph unicode="&#xa1;" horiz-adv-x="532" d="M180 909q0 38 25 64t61 26t62 -26t26 -64q0 -35 -26.5 -61.5t-61.5 -26.5t-60.5 26.5t-25.5 61.5zM203 -381l22 995h82l25 -995h-129z" />
<glyph unicode="&#xa2;" horiz-adv-x="884" d="M90 489q0 206 99 343.5t264 160.5v217h102v-211q149 -10 254 -102l-53 -78q-103 88 -238 88q-105 0 -177.5 -57.5t-105 -148.5t-32.5 -207q0 -84 19 -158.5t56 -134.5t98 -95.5t140 -35.5q77 0 144.5 27t105.5 61l47 -80q-102 -85 -258 -98v-232h-102v234 q-89 11 -160 57.5t-114.5 116.5t-66 155t-22.5 178z" />
<glyph unicode="&#xa3;" horiz-adv-x="929" d="M115 0v74q111 67 168 181.5t57 240.5q0 75 -8 135h-197v90h184q-2 15 -8 69.5t-8.5 80.5t-5 71t-2.5 84q0 163 83.5 261.5t248.5 98.5q74 0 135 -20.5t98 -48.5l-49 -82q-82 57 -199 57q-106 0 -157.5 -72t-51.5 -194q0 -47 3.5 -93.5t11.5 -119.5t10 -92h311v-90h-301 q6 -129 6 -131q0 -140 -55.5 -251t-120.5 -157h557v-92h-710z" />
<glyph unicode="&#xa4;" horiz-adv-x="1083" d="M117 27l159 204q-100 103 -100 256q0 156 109 265l-164 211l72 55l161 -215q87 49 193 49q102 0 176 -41l160 207l71 -55l-157 -201q59 -52 92 -125.5t33 -149.5t-30.5 -146t-86.5 -122l149 -192l-71 -56l-150 197q-82 -45 -186 -45q-115 0 -201 55l-158 -207zM274 487 q0 -118 77.5 -198t195.5 -80q119 0 196.5 80t77.5 198t-77.5 199.5t-196.5 81.5q-117 0 -195 -81.5t-78 -199.5z" />
<glyph unicode="&#xa5;" horiz-adv-x="1028" d="M6 1364h127l387 -737h4l389 737h113l-434 -813h309v-90h-328v-168h328v-88h-328v-205h-110v205h-326v88h326v168h-326v90h307z" />
<glyph unicode="&#xa6;" horiz-adv-x="344" d="M129 262h82v-774h-82v774zM129 782v754h82v-754h-82z" />
<glyph unicode="&#xa7;" horiz-adv-x="940" d="M150 764q0 82 39.5 145.5t91.5 102.5q-62 94 -62 188q0 134 84.5 215.5t204.5 81.5q135 0 223 -72l-53 -82q-71 62 -172 62q-87 0 -135.5 -58.5t-48.5 -138.5q0 -65 48 -143t116 -153t136 -152.5t116 -167t48 -170.5q0 -137 -131 -252q62 -101 62 -184q0 -139 -84 -218 t-207 -79q-135 0 -221 69l49 80q71 -55 174 -55q88 0 136 55.5t48 138.5q0 65 -47.5 142.5t-115.5 153t-136 153.5t-115.5 167.5t-47.5 170.5zM256 766q0 -55 40.5 -128.5t90 -132.5t117.5 -138t98 -121q80 76 80 174q0 56 -41 129t-90.5 132t-118 137t-98.5 120 q-78 -60 -78 -172z" />
<glyph unicode="&#xa8;" horiz-adv-x="1024" d="M258 1196q0 34 24 58t56 24q34 0 58 -24t24 -58q0 -35 -24 -59.5t-58 -24.5q-33 0 -56.5 24.5t-23.5 59.5zM604 1196q0 34 24 58t56 24q34 0 59 -24t25 -58q0 -35 -25 -59.5t-59 -24.5q-33 0 -56.5 24.5t-23.5 59.5z" />
<glyph unicode="&#xa9;" horiz-adv-x="1759" d="M123 735q0 156 59.5 297t160.5 243t241 162t295 60q207 0 381.5 -102t275 -277t100.5 -383t-100.5 -382.5t-274.5 -276t-382 -101.5q-155 0 -295 60t-241 161.5t-160.5 242t-59.5 296.5zM211 735q0 -144 51.5 -270t140 -216t212.5 -142t264 -52q188 0 341.5 88t241.5 244 t88 348q0 143 -51.5 269.5t-140.5 217t-213.5 143t-265.5 52.5q-140 0 -264 -52.5t-212.5 -143t-140 -217t-51.5 -269.5zM428 735q0 133 60 243.5t167.5 175.5t237.5 65q161 0 281 -101l-58 -69q-93 81 -223 81q-109 0 -192.5 -57.5t-124.5 -145t-41 -188.5q0 -165 104 -281 t260 -116q145 0 256 92l47 -76q-128 -104 -309 -104q-132 0 -239.5 65.5t-166.5 175.5t-59 240z" />
<glyph unicode="&#xaa;" horiz-adv-x="727" d="M80 838q0 89 65 151q96 88 338 88v68q0 160 -143 160q-104 0 -178 -70l-49 63q93 88 229 88q111 0 172 -58t61 -171v-342q0 -70 17 -153h-94q-9 51 -11 75q-33 -38 -83.5 -65t-112.5 -27q-89 0 -150 55t-61 138zM176 840q0 -50 35 -81.5t88 -31.5q110 0 184 94v183 q-107 0 -173 -15t-103 -57q-31 -39 -31 -92z" />
<glyph unicode="&#xab;" horiz-adv-x="927" d="M100 502l283 387h113l-281 -387l281 -385h-113zM434 502l281 387h114l-280 -387l280 -385h-114z" />
<glyph unicode="&#xac;" horiz-adv-x="1177" d="M86 504v94h983v-512h-100v418h-883z" />
<glyph unicode="&#xad;" horiz-adv-x="616" d="M113 545v94h391v-94h-391z" />
<glyph unicode="&#xae;" horiz-adv-x="1759" d="M123 735q0 156 59.5 297t160.5 243t241 162t295 60q207 0 381.5 -102t275 -277t100.5 -383t-100.5 -382.5t-274.5 -276t-382 -101.5q-155 0 -295 60t-241 161.5t-160.5 242t-59.5 296.5zM211 735q0 -144 51.5 -270t140 -216t212.5 -142t264 -52q188 0 341.5 88t241.5 244 t88 348q0 143 -51.5 269.5t-140.5 217t-213.5 143t-265.5 52.5q-140 0 -264 -52.5t-212.5 -143t-140 -217t-51.5 -269.5zM625 264v950h266q132 0 208.5 -74.5t76.5 -178.5q0 -100 -71 -168.5t-192 -75.5h-16q45 -33 100 -113l250 -340h-121l-245 344q-44 63 -72.5 83 t-85.5 20v-447h-98zM723 791h125q102 0 163.5 41t61.5 126q0 75 -51.5 122.5t-149.5 47.5h-149v-337z" />
<glyph unicode="&#xaf;" horiz-adv-x="1024" d="M238 1190v90h546v-90h-546z" />
<glyph unicode="&#xb0;" horiz-adv-x="706" d="M98 1126q0 107 73.5 183.5t182.5 76.5t181.5 -76t72.5 -182t-73.5 -183t-182.5 -77q-107 0 -180.5 76.5t-73.5 181.5zM184 1128q0 -76 47.5 -128t122.5 -52q74 0 121 52t47 128q0 75 -47.5 128t-120.5 53q-75 0 -122.5 -53t-47.5 -128z" />
<glyph unicode="&#xb1;" horiz-adv-x="1193" d="M92 500v90h457v442h102v-440h451v-92h-451v-467h-102v467h-457zM166 -109h868v-94h-868v94z" />
<glyph unicode="&#xb2;" horiz-adv-x="626" d="M63 700v52q13 12 49.5 44.5t53.5 48t50.5 46.5t51 50.5t43.5 48.5t40.5 51.5t29 48.5t21 49.5t6.5 46.5q0 56 -34.5 84t-90.5 28q-87 0 -166 -67l-49 59q99 86 227 86q102 0 156.5 -48t54.5 -132q0 -52 -25 -106.5t-75 -112.5t-92 -99t-109 -100h334v-78h-476z" />
<glyph unicode="&#xb3;" horiz-adv-x="569" d="M49 1300q32 29 90.5 52.5t120.5 23.5q95 0 146 -39.5t51 -107.5q0 -63 -45 -104t-109 -56v-2q70 -7 123 -52t53 -118q0 -101 -79.5 -154t-213.5 -53q-72 0 -129 17l19 75q40 -16 106 -16q91 0 145 33t54 96q0 66 -65.5 96.5t-172.5 30.5v68q85 0 151 33.5t66 90.5 q0 40 -32 62t-86 22q-41 0 -83 -17t-69 -38z" />
<glyph unicode="&#xb4;" horiz-adv-x="1024" d="M311 1106l199 250h160l-267 -250h-92z" />
<glyph unicode="&#xb5;" horiz-adv-x="1060" d="M170 -444v1421h106v-688q0 -215 187 -215q94 0 179 60t134 132v711h107v-795q0 -112 16 -182h-108q-11 58 -15 158q-30 -42 -69 -79t-109 -69.5t-147 -32.5q-59 0 -107 22t-72 56h-4q8 -79 8 -245v-254h-106z" />
<glyph unicode="&#xb6;" horiz-adv-x="1273" d="M141 969q0 176 112.5 285.5t278.5 109.5h601v-92h-168v-1634h-99v1634h-233v-1634h-101v940q-166 0 -278.5 107.5t-112.5 283.5z" />
<glyph unicode="&#xb7;" horiz-adv-x="389" d="M102 596q0 38 28 65t65 27q38 0 65 -27t27 -65q0 -40 -27 -68t-65 -28q-37 0 -65 28.5t-28 67.5z" />
<glyph unicode="&#xb8;" horiz-adv-x="1024" d="M307 -416l21 68q46 -23 104 -23q53 0 84 23t31 65q0 86 -150 86l76 203h78l-55 -151q63 -8 103 -45t40 -91q0 -75 -58 -117t-147 -42q-79 0 -127 24z" />
<glyph unicode="&#xb9;" horiz-adv-x="464" d="M37 1309l194 55h74v-664h-94v582l-152 -47z" />
<glyph unicode="&#xba;" horiz-adv-x="780" d="M76 1016q0 70 18 134.5t53.5 119t97.5 87t142 32.5t142.5 -32.5t100 -86.5t56.5 -118t19 -132q0 -71 -19 -136t-56 -119.5t-100 -87t-143 -32.5q-79 0 -141 32.5t-98 86.5t-54 118t-18 134zM176 1020q0 -125 53.5 -209t161.5 -84q107 0 160 82t53 207q0 122 -56 206.5 t-163 84.5q-56 0 -97.5 -23.5t-65 -64.5t-35 -90.5t-11.5 -108.5z" />
<glyph unicode="&#xbb;" horiz-adv-x="927" d="M98 117l279 385l-279 389h113l283 -389l-283 -385h-113zM430 117l281 385l-281 389h115l282 -389l-282 -385h-115z" />
<glyph unicode="&#xbc;" horiz-adv-x="1200" d="M37 1309l194 55h74v-664h-94v582l-152 -47zM94 0l836 1364h92l-836 -1364h-92zM612 147v66l355 451h88v-441h104v-76h-104v-147h-90v147h-353zM719 223h246v316z" />
<glyph unicode="&#xbd;" horiz-adv-x="1277" d="M37 1309l194 55h74v-664h-94v582l-152 -47zM94 0l836 1364h92l-836 -1364h-92zM715 0v51q153 136 201 186q143 148 143 246q0 58 -34 86.5t-91 28.5q-88 0 -164 -68l-49 60q92 84 227 84q101 0 155 -47.5t54 -132.5q0 -41 -19 -87t-45 -85t-71 -87t-78.5 -80t-85.5 -79 h332v-76h-475z" />
<glyph unicode="&#xbe;" horiz-adv-x="1302" d="M49 1300q32 29 90.5 52.5t120.5 23.5q95 0 146 -39.5t51 -107.5q0 -63 -45 -104t-109 -56v-2q70 -7 123 -52t53 -118q0 -101 -79.5 -154t-213.5 -53q-72 0 -129 17l19 75q40 -16 106 -16q91 0 145 33t54 96q0 66 -65.5 96.5t-172.5 30.5v68q85 0 151 33.5t66 90.5 q0 40 -32 62t-86 22q-41 0 -83 -17t-69 -38zM199 0l833 1364h94l-835 -1364h-92zM717 147v66l354 451h88v-441h103v-76h-103v-147h-92v147h-350zM821 223h248v316z" />
<glyph unicode="&#xbf;" horiz-adv-x="792" d="M106 -70q0 57 15.5 108t37 86t56 68.5t61 53t62.5 41.5q72 45 99.5 92t27.5 119v123h102v-134q0 -91 -37 -153.5t-127 -120.5q-44 -28 -70.5 -49t-56 -54.5t-43.5 -76t-14 -96.5q0 -126 73 -186t204 -60q43 0 90 12.5t76 30.5l38 -86q-35 -20 -95 -35.5t-118 -15.5 q-183 0 -282 87t-99 246zM426 909q0 38 26 64t62 26t62 -26t26 -64q0 -35 -26.5 -61.5t-61.5 -26.5t-61.5 26.5t-26.5 61.5z" />
<glyph unicode="&#xc0;" horiz-adv-x="1245" d="M45 0l520 1364h115l520 -1364h-119l-139 369h-647l-137 -369h-113zM315 1710h160l199 -250h-94zM332 465h573l-287 766z" />
<glyph unicode="&#xc1;" horiz-adv-x="1245" d="M45 0l520 1364h115l520 -1364h-119l-139 369h-647l-137 -369h-113zM332 465h573l-287 766zM569 1460l199 250h160l-266 -250h-93z" />
<glyph unicode="&#xc2;" horiz-adv-x="1245" d="M45 0l520 1364h115l520 -1364h-119l-139 369h-647l-137 -369h-113zM332 465h573l-287 766zM340 1462l244 301h69l244 -301h-100l-181 193l-176 -193h-100z" />
<glyph unicode="&#xc3;" horiz-adv-x="1245" d="M45 0l520 1364h115l520 -1364h-119l-139 369h-647l-137 -369h-113zM332 465h573l-287 766zM346 1542q29 43 74.5 76t99.5 33q40 0 75 -21.5t66.5 -43t61.5 -21.5q58 0 113 69l57 -59q-86 -105 -178 -105q-39 0 -73.5 21t-66.5 42t-63 21q-22 0 -46 -13.5t-34 -23 t-31 -30.5z" />
<glyph unicode="&#xc4;" horiz-adv-x="1245" d="M45 0l520 1364h115l520 -1364h-119l-139 369h-647l-137 -369h-113zM332 465h573l-287 766zM365 1550q0 34 23.5 58t55.5 24q34 0 58 -24t24 -58q0 -35 -24 -59.5t-58 -24.5q-32 0 -55.5 24.5t-23.5 59.5zM711 1550q0 34 24 58t56 24q34 0 58.5 -24t24.5 -58 q0 -35 -24.5 -59.5t-58.5 -24.5q-33 0 -56.5 24.5t-23.5 59.5z" />
<glyph unicode="&#xc5;" horiz-adv-x="1245" d="M45 0l520 1364h115l520 -1364h-119l-139 369h-647l-137 -369h-113zM332 465h573l-287 766zM434 1626q0 77 54 133t130 56t130.5 -55.5t54.5 -131.5q0 -77 -54.5 -132.5t-130.5 -55.5t-130 55t-54 131zM506 1628q0 -49 30.5 -87t81.5 -38t82 37t31 86t-31 86t-82 37 t-81.5 -36t-30.5 -85z" />
<glyph unicode="&#xc6;" horiz-adv-x="1630" d="M-25 0l789 1364h731v-96h-557v-492h489v-96h-489v-584h571v-96h-682v393h-505l-226 -393h-121zM375 489h452v791z" />
<glyph unicode="&#xc7;" horiz-adv-x="1249" d="M111 684q0 140 45.5 266.5t128.5 223.5t208.5 154.5t274.5 57.5q213 0 365 -100l-58 -86q-132 92 -311 92q-125 0 -228 -49.5t-169.5 -133t-103 -192.5t-36.5 -229q0 -98 22.5 -188.5t68 -168t109.5 -135t151.5 -90t189.5 -32.5q203 0 342 119l55 -80q-66 -60 -170 -98 t-229 -38l-45 -122q63 -8 103 -45t40 -91q0 -75 -58 -117t-147 -42q-79 0 -127 24l21 68q46 -23 104 -23q53 0 84 23t31 65q0 86 -149 86l65 179q-177 18 -310 119.5t-200 253t-67 329.5z" />
<glyph unicode="&#xc8;" horiz-adv-x="1009" d="M205 0v1364h669v-96h-557v-492h490v-96h-490v-584h572v-96h-684zM244 1710h159l199 -250h-94z" />
<glyph unicode="&#xc9;" horiz-adv-x="1009" d="M205 0v1364h669v-96h-557v-492h490v-96h-490v-584h572v-96h-684zM498 1460l198 250h160l-266 -250h-92z" />
<glyph unicode="&#xca;" horiz-adv-x="1009" d="M205 0v1364h669v-96h-557v-492h490v-96h-490v-584h572v-96h-684zM270 1462l244 301h70l243 -301h-100l-180 193l-176 -193h-101z" />
<glyph unicode="&#xcb;" horiz-adv-x="1009" d="M205 0v1364h669v-96h-557v-492h490v-96h-490v-584h572v-96h-684zM293 1550q0 34 24 58t56 24q34 0 58 -24t24 -58q0 -35 -24 -59.5t-58 -24.5q-33 0 -56.5 24.5t-23.5 59.5zM639 1550q0 34 24 58t56 24q34 0 59 -24t25 -58q0 -35 -25 -59.5t-59 -24.5q-33 0 -56.5 24.5 t-23.5 59.5z" />
<glyph unicode="&#xcc;" horiz-adv-x="534" d="M-37 1710h160l199 -250h-95zM211 0v1364h113v-1364h-113z" />
<glyph unicode="&#xcd;" horiz-adv-x="534" d="M211 0v1364h113v-1364h-113zM219 1460l199 250h160l-267 -250h-92z" />
<glyph unicode="&#xce;" horiz-adv-x="534" d="M-8 1462l244 301h69l244 -301h-100l-181 193l-176 -193h-100zM211 0v1364h113v-1364h-113z" />
<glyph unicode="&#xcf;" horiz-adv-x="534" d="M14 1550q0 34 24 58t56 24q34 0 58 -24t24 -58q0 -35 -24 -59.5t-58 -24.5q-33 0 -56.5 24.5t-23.5 59.5zM211 0v1364h113v-1364h-113zM360 1550q0 34 24 58t56 24q34 0 59 -24t25 -58q0 -35 -25 -59.5t-59 -24.5q-33 0 -56.5 24.5t-23.5 59.5z" />
<glyph unicode="&#xd0;" horiz-adv-x="1351" d="M68 662v88h147v614h297q367 0 562.5 -177t195.5 -493q0 -156 -49 -283t-143 -219t-239.5 -142t-332.5 -50h-291v662h-147zM328 94h186q307 0 474 153t167 443q0 289 -165.5 434.5t-481.5 145.5h-180v-520h233v-88h-233v-568z" />
<glyph unicode="&#xd1;" horiz-adv-x="1435" d="M203 0v1364h110l813 -1178v1178h107v-1364h-105l-821 1186v-1186h-104zM444 1542q29 43 74.5 76t99.5 33q40 0 75 -21.5t66.5 -43t61.5 -21.5q58 0 113 69l57 -59q-86 -105 -178 -105q-39 0 -73.5 21t-66.5 42t-63 21q-22 0 -46 -14t-33 -22.5t-31 -30.5z" />
<glyph unicode="&#xd2;" d="M111 680q0 142 45.5 269.5t128.5 225t208 154.5t275 57q148 0 273 -56.5t208.5 -153t129.5 -224t46 -268.5q0 -142 -46 -270t-129 -225t-208 -154.5t-274 -57.5t-274 57t-208 153.5t-129 223.5t-46 269zM227 684q0 -98 23 -189t69 -167.5t110.5 -134t151.5 -89.5t187 -32 q124 0 227.5 49t171 132.5t105 193.5t37.5 233t-37.5 233.5t-105 195t-171 134t-227.5 49.5t-227.5 -49t-171 -132.5t-105 -193.5t-37.5 -233zM461 1710h160l198 -250h-94z" />
<glyph unicode="&#xd3;" d="M111 680q0 142 45.5 269.5t128.5 225t208 154.5t275 57q148 0 273 -56.5t208.5 -153t129.5 -224t46 -268.5q0 -142 -46 -270t-129 -225t-208 -154.5t-274 -57.5t-274 57t-208 153.5t-129 223.5t-46 269zM227 684q0 -98 23 -189t69 -167.5t110.5 -134t151.5 -89.5t187 -32 q124 0 227.5 49t171 132.5t105 193.5t37.5 233t-37.5 233.5t-105 195t-171 134t-227.5 49.5t-227.5 -49t-171 -132.5t-105 -193.5t-37.5 -233zM717 1460l198 250h160l-266 -250h-92z" />
<glyph unicode="&#xd4;" d="M111 680q0 142 45.5 269.5t128.5 225t208 154.5t275 57q148 0 273 -56.5t208.5 -153t129.5 -224t46 -268.5q0 -142 -46 -270t-129 -225t-208 -154.5t-274 -57.5t-274 57t-208 153.5t-129 223.5t-46 269zM227 684q0 -98 23 -189t69 -167.5t110.5 -134t151.5 -89.5t187 -32 q124 0 227.5 49t171 132.5t105 193.5t37.5 233t-37.5 233.5t-105 195t-171 134t-227.5 49.5t-227.5 -49t-171 -132.5t-105 -193.5t-37.5 -233zM489 1462l244 301h70l244 -301h-101l-180 193l-176 -193h-101z" />
<glyph unicode="&#xd5;" d="M111 680q0 142 45.5 269.5t128.5 225t208 154.5t275 57q148 0 273 -56.5t208.5 -153t129.5 -224t46 -268.5q0 -142 -46 -270t-129 -225t-208 -154.5t-274 -57.5t-274 57t-208 153.5t-129 223.5t-46 269zM227 684q0 -98 23 -189t69 -167.5t110.5 -134t151.5 -89.5t187 -32 q124 0 227.5 49t171 132.5t105 193.5t37.5 233t-37.5 233.5t-105 195t-171 134t-227.5 49.5t-227.5 -49t-171 -132.5t-105 -193.5t-37.5 -233zM494 1542q29 43 74.5 76t99.5 33q32 0 61 -13.5t47.5 -29.5t44 -29.5t49.5 -13.5q58 0 113 69l57 -59q-86 -105 -178 -105 q-39 0 -73.5 21t-66.5 42t-63 21q-22 0 -46 -14t-33 -22.5t-31 -30.5z" />
<glyph unicode="&#xd6;" d="M111 680q0 142 45.5 269.5t128.5 225t208 154.5t275 57q148 0 273 -56.5t208.5 -153t129.5 -224t46 -268.5q0 -142 -46 -270t-129 -225t-208 -154.5t-274 -57.5t-274 57t-208 153.5t-129 223.5t-46 269zM227 684q0 -98 23 -189t69 -167.5t110.5 -134t151.5 -89.5t187 -32 q124 0 227.5 49t171 132.5t105 193.5t37.5 233t-37.5 233.5t-105 195t-171 134t-227.5 49.5t-227.5 -49t-171 -132.5t-105 -193.5t-37.5 -233zM512 1550q0 34 24 58t56 24q34 0 58 -24t24 -58q0 -35 -24 -59.5t-58 -24.5q-33 0 -56.5 24.5t-23.5 59.5zM858 1550q0 34 24 58 t56 24q34 0 59 -24t25 -58q0 -35 -25 -59.5t-59 -24.5q-33 0 -56.5 24.5t-23.5 59.5z" />
<glyph unicode="&#xd7;" horiz-adv-x="1030" d="M168 270l274 273l-274 276l70 70l276 -273l274 275l66 -66l-274 -276l284 -283l-71 -69l-285 280l-275 -274z" />
<glyph unicode="&#xd8;" d="M111 680q0 142 45.5 269.5t128.5 225t208 154.5t275 57q217 0 377 -116l131 198l67 -49l-135 -202q104 -96 160.5 -236t56.5 -297q0 -142 -46 -270t-129 -225t-208 -154.5t-274 -57.5q-185 0 -324 82l-125 -186l-65 47l121 184q-125 96 -194.5 248t-69.5 328zM227 684 q0 -150 54 -280t153 -214l653 992q-136 110 -319 110q-124 0 -227.5 -49t-171 -132.5t-105 -193.5t-37.5 -233zM498 145q118 -73 270 -73q124 0 227.5 49t171 132.5t105 193.5t37.5 233q0 131 -42 247t-120 199z" />
<glyph unicode="&#xd9;" horiz-adv-x="1394" d="M193 512v852h112v-840q0 -448 400 -448q195 0 293 115.5t98 318.5v854h106v-848q0 -257 -124 -398t-378 -141q-259 0 -383 141.5t-124 393.5zM391 1710h160l199 -250h-95z" />
<glyph unicode="&#xda;" horiz-adv-x="1394" d="M193 512v852h112v-840q0 -448 400 -448q195 0 293 115.5t98 318.5v854h106v-848q0 -257 -124 -398t-378 -141q-259 0 -383 141.5t-124 393.5zM647 1460l199 250h160l-267 -250h-92z" />
<glyph unicode="&#xdb;" horiz-adv-x="1394" d="M193 512v852h112v-840q0 -448 400 -448q195 0 293 115.5t98 318.5v854h106v-848q0 -257 -124 -398t-378 -141q-259 0 -383 141.5t-124 393.5zM418 1462l244 301h69l244 -301h-101l-180 193l-176 -193h-100z" />
<glyph unicode="&#xdc;" horiz-adv-x="1394" d="M193 512v852h112v-840q0 -448 400 -448q195 0 293 115.5t98 318.5v854h106v-848q0 -257 -124 -398t-378 -141q-259 0 -383 141.5t-124 393.5zM442 1550q0 34 24 58t56 24q34 0 58 -24t24 -58q0 -35 -24 -59.5t-58 -24.5q-33 0 -56.5 24.5t-23.5 59.5zM788 1550 q0 34 24 58t56 24q34 0 59 -24t25 -58q0 -35 -25 -59.5t-59 -24.5q-33 0 -56.5 24.5t-23.5 59.5z" />
<glyph unicode="&#xdd;" horiz-adv-x="1099" d="M41 1364h127l387 -737h4l387 737h115l-453 -850v-514h-110v514zM500 1460l198 250h160l-266 -250h-92z" />
<glyph unicode="&#xde;" horiz-adv-x="1052" d="M205 0v1364h112v-244h185q217 0 342 -101.5t125 -283.5q0 -187 -125.5 -293t-354.5 -106h-172v-336h-112zM317 432h170q188 0 277.5 79t89.5 222q0 134 -88 212.5t-274 78.5h-175v-592z" />
<glyph unicode="&#xdf;" horiz-adv-x="1089" d="M184 0v1014q0 234 109 358.5t280 124.5q155 0 243.5 -85.5t88.5 -211.5q0 -105 -49.5 -172t-138.5 -121q-88 -51 -124 -89t-36 -97q0 -58 40 -93t153 -96q46 -24 72.5 -39.5t63.5 -43.5t57 -54t35 -64t15 -81q0 -126 -90.5 -200.5t-236.5 -74.5q-150 0 -242 74l49 84 q80 -63 197 -63q92 0 153.5 45t61.5 125q0 26 -6 48t-22.5 42t-30.5 34t-44.5 33.5t-50.5 30.5t-61 33q-50 26 -81 45.5t-66 50.5t-51.5 69t-16.5 85q0 34 6.5 62.5t24 54.5t31 42.5t44 40t44.5 33t52 33.5q76 47 109 93.5t33 121.5q0 95 -59 153t-171 58 q-123 0 -200.5 -98.5t-77.5 -290.5v-1014h-107z" />
<glyph unicode="&#xe0;" horiz-adv-x="937" d="M98 229q0 93 47.5 161.5t127 104.5t164 52t177.5 16h45v111q0 120 -52 175.5t-163 55.5q-142 0 -254 -104l-57 73q131 125 320 125q153 0 233 -77.5t80 -233.5v-491q0 -129 20 -197h-106q-10 51 -14 123q-52 -67 -130.5 -106.5t-164.5 -39.5q-122 0 -197.5 69t-75.5 183z M147 1356h160l199 -250h-94zM209 233q0 -75 53 -119t123 -44q159 0 274 147v262h-45q-86 0 -156.5 -13t-127.5 -41t-89 -77t-32 -115z" />
<glyph unicode="&#xe1;" horiz-adv-x="937" d="M98 229q0 93 47.5 161.5t127 104.5t164 52t177.5 16h45v111q0 120 -52 175.5t-163 55.5q-142 0 -254 -104l-57 73q131 125 320 125q153 0 233 -77.5t80 -233.5v-491q0 -129 20 -197h-106q-10 51 -14 123q-52 -67 -130.5 -106.5t-164.5 -39.5q-122 0 -197.5 69t-75.5 183z M209 233q0 -75 53 -119t123 -44q159 0 274 147v262h-45q-86 0 -156.5 -13t-127.5 -41t-89 -77t-32 -115zM401 1106l199 250h160l-266 -250h-93z" />
<glyph unicode="&#xe2;" horiz-adv-x="937" d="M98 229q0 93 47.5 161.5t127 104.5t164 52t177.5 16h45v111q0 120 -52 175.5t-163 55.5q-142 0 -254 -104l-57 73q131 125 320 125q153 0 233 -77.5t80 -233.5v-491q0 -129 20 -197h-106q-10 51 -14 123q-52 -67 -130.5 -106.5t-164.5 -39.5q-122 0 -197.5 69t-75.5 183z M174 1108l244 301h69l244 -301h-100l-180 192l-177 -192h-100zM209 233q0 -75 53 -119t123 -44q159 0 274 147v262h-45q-86 0 -156.5 -13t-127.5 -41t-89 -77t-32 -115z" />
<glyph unicode="&#xe3;" horiz-adv-x="937" d="M98 229q0 93 47.5 161.5t127 104.5t164 52t177.5 16h45v111q0 120 -52 175.5t-163 55.5q-142 0 -254 -104l-57 73q131 125 320 125q153 0 233 -77.5t80 -233.5v-491q0 -129 20 -197h-106q-10 51 -14 123q-52 -67 -130.5 -106.5t-164.5 -39.5q-122 0 -197.5 69t-75.5 183z M180 1188q29 42 74.5 75t99.5 33q40 0 75 -21.5t66.5 -43t61.5 -21.5q57 0 113 70l57 -59q-86 -105 -178 -105q-39 0 -73.5 21t-66.5 42t-63 21q-22 0 -46 -14t-33 -22.5t-31 -30.5zM209 233q0 -75 53 -119t123 -44q159 0 274 147v262h-45q-86 0 -156.5 -13t-127.5 -41 t-89 -77t-32 -115z" />
<glyph unicode="&#xe4;" horiz-adv-x="937" d="M98 229q0 93 47.5 161.5t127 104.5t164 52t177.5 16h45v111q0 120 -52 175.5t-163 55.5q-142 0 -254 -104l-57 73q131 125 320 125q153 0 233 -77.5t80 -233.5v-491q0 -129 20 -197h-106q-10 51 -14 123q-52 -67 -130.5 -106.5t-164.5 -39.5q-122 0 -197.5 69t-75.5 183z M199 1196q0 34 24 58t56 24q34 0 57.5 -24t23.5 -58q0 -35 -23.5 -59.5t-57.5 -24.5q-33 0 -56.5 24.5t-23.5 59.5zM209 233q0 -75 53 -119t123 -44q159 0 274 147v262h-45q-86 0 -156.5 -13t-127.5 -41t-89 -77t-32 -115zM545 1196q0 34 24 58t56 24q34 0 59 -24t25 -58 q0 -35 -25 -59.5t-59 -24.5q-33 0 -56.5 24.5t-23.5 59.5z" />
<glyph unicode="&#xe5;" horiz-adv-x="937" d="M98 229q0 93 47.5 161.5t127 104.5t164 52t177.5 16h45v111q0 120 -52 175.5t-163 55.5q-142 0 -254 -104l-57 73q131 125 320 125q153 0 233 -77.5t80 -233.5v-491q0 -129 20 -197h-106q-10 51 -14 123q-52 -67 -130.5 -106.5t-164.5 -39.5q-122 0 -197.5 69t-75.5 183z M209 233q0 -75 53 -119t123 -44q159 0 274 147v262h-45q-86 0 -156.5 -13t-127.5 -41t-89 -77t-32 -115zM268 1296q0 77 54.5 133t130.5 56t130 -55.5t54 -131.5q0 -77 -54 -132.5t-130 -55.5t-130.5 55.5t-54.5 130.5zM340 1298q0 -49 31 -86.5t82 -37.5t81.5 36.5 t30.5 85.5t-30.5 86t-81.5 37t-82 -36t-31 -85z" />
<glyph unicode="&#xe6;" horiz-adv-x="1544" d="M98 229q0 93 47.5 161.5t127 104.5t164 52t177.5 16h48v111q0 116 -51.5 173.5t-166.5 57.5q-142 0 -254 -104l-57 73q129 125 320 125q242 0 290 -200q50 94 136.5 147t197.5 53q171 0 270 -117.5t99 -308.5q0 -35 -2 -53h-674v-22q1 -87 20 -161.5t57.5 -135.5 t102.5 -96t148 -35q86 0 160 27.5t124 64.5l45 -84q-141 -101 -333 -101q-240 0 -359 203q-63 -90 -157 -146.5t-207 -56.5q-122 0 -197.5 69t-75.5 183zM209 233q0 -75 53 -119t123 -44q95 0 176.5 50.5t136.5 135.5q-38 98 -41 223h-43q-86 0 -156.5 -13t-127.5 -41 t-89 -77t-32 -115zM776 608h561q-1 57 -16.5 109t-46 95.5t-82.5 69t-119 25.5q-120 0 -197 -82t-100 -217z" />
<glyph unicode="&#xe7;" horiz-adv-x="886" d="M88 489q0 230 119.5 370t310.5 140q176 0 291 -102l-55 -78q-103 88 -238 88q-105 0 -177.5 -57.5t-105 -148.5t-32.5 -207q0 -84 19 -158.5t56 -134.5t98 -95.5t140 -35.5q77 0 144.5 27t105.5 61l47 -80q-46 -40 -120.5 -69t-170.5 -32l-45 -122q63 -8 103 -45t40 -91 q0 -75 -57.5 -117t-146.5 -42q-79 0 -127 24l20 68q46 -23 105 -23q53 0 83.5 23t30.5 65q0 86 -149 86l65 181q-115 17 -196.5 92.5t-119.5 181.5t-38 231z" />
<glyph unicode="&#xe8;" horiz-adv-x="976" d="M88 498q0 139 50 252t146.5 181t223.5 68q172 0 270.5 -117.5t98.5 -308.5q0 -26 -3 -53h-673v-22q1 -87 20 -161.5t57.5 -135.5t103 -96t148.5 -35q85 0 160.5 27.5t122.5 64.5l45 -84q-137 -101 -332 -101q-109 0 -194 41.5t-137.5 114t-79.5 165t-27 200.5zM199 1356 h159l199 -250h-94zM207 608h561q-1 57 -16.5 109t-46 95.5t-82.5 69t-119 25.5q-122 0 -198 -83t-99 -216z" />
<glyph unicode="&#xe9;" horiz-adv-x="976" d="M88 498q0 139 50 252t146.5 181t223.5 68q172 0 270.5 -117.5t98.5 -308.5q0 -26 -3 -53h-673v-22q1 -87 20 -161.5t57.5 -135.5t103 -96t148.5 -35q85 0 160.5 27.5t122.5 64.5l45 -84q-137 -101 -332 -101q-109 0 -194 41.5t-137.5 114t-79.5 165t-27 200.5zM207 608 h561q-1 57 -16.5 109t-46 95.5t-82.5 69t-119 25.5q-122 0 -198 -83t-99 -216zM453 1106l198 250h160l-266 -250h-92z" />
<glyph unicode="&#xea;" horiz-adv-x="976" d="M88 498q0 139 50 252t146.5 181t223.5 68q172 0 270.5 -117.5t98.5 -308.5q0 -26 -3 -53h-673v-22q1 -87 20 -161.5t57.5 -135.5t103 -96t148.5 -35q85 0 160.5 27.5t122.5 64.5l45 -84q-137 -101 -332 -101q-109 0 -194 41.5t-137.5 114t-79.5 165t-27 200.5zM207 608 h561q-1 57 -16.5 109t-46 95.5t-82.5 69t-119 25.5q-122 0 -198 -83t-99 -216zM225 1108l244 301h70l243 -301h-100l-180 192l-176 -192h-101z" />
<glyph unicode="&#xeb;" horiz-adv-x="976" d="M88 498q0 139 50 252t146.5 181t223.5 68q172 0 270.5 -117.5t98.5 -308.5q0 -26 -3 -53h-673v-22q1 -87 20 -161.5t57.5 -135.5t103 -96t148.5 -35q85 0 160.5 27.5t122.5 64.5l45 -84q-137 -101 -332 -101q-109 0 -194 41.5t-137.5 114t-79.5 165t-27 200.5zM207 608 h561q-1 57 -16.5 109t-46 95.5t-82.5 69t-119 25.5q-122 0 -198 -83t-99 -216zM250 1196q0 34 24 58t56 24q34 0 58 -24t24 -58q0 -35 -24 -59.5t-58 -24.5q-33 0 -56.5 24.5t-23.5 59.5zM596 1196q0 34 24 58t56 24q34 0 59 -24t25 -58q0 -35 -25 -59.5t-59 -24.5 q-33 0 -56.5 24.5t-23.5 59.5z" />
<glyph unicode="&#xec;" horiz-adv-x="481" d="M-63 1356h159l199 -250h-94zM186 0v977h109v-977h-109z" />
<glyph unicode="&#xed;" horiz-adv-x="481" d="M186 0v977h109v-977h-109zM193 1106l198 250h160l-266 -250h-92z" />
<glyph unicode="&#xee;" horiz-adv-x="481" d="M-37 1108l244 301h69l244 -301h-100l-180 192l-177 -192h-100zM186 0v977h109v-977h-109z" />
<glyph unicode="&#xef;" horiz-adv-x="481" d="M-12 1196q0 34 24 58t56 24q34 0 58 -24t24 -58q0 -35 -24 -59.5t-58 -24.5q-33 0 -56.5 24.5t-23.5 59.5zM186 0v977h109v-977h-109zM334 1196q0 34 24 58t56 24q34 0 59 -24t25 -58q0 -35 -25 -59.5t-59 -24.5q-33 0 -56.5 24.5t-23.5 59.5z" />
<glyph unicode="&#xf0;" horiz-adv-x="1091" d="M90 485q0 225 119 366.5t319 141.5q111 0 201.5 -48t144.5 -120q-44 309 -253 459l-177 -145l-57 65l154 127q-143 76 -351 76l21 90q233 0 414 -96l145 121l55 -68l-125 -102q145 -109 222 -290.5t77 -418.5q0 -130 -27 -246t-81.5 -211.5t-147 -152t-213.5 -56.5 q-130 0 -232 69.5t-155 185t-53 253.5zM201 489q0 -114 38 -207.5t115.5 -152.5t182.5 -59q117 0 198 77.5t117.5 204.5t36.5 295v45q-61 94 -155 150.5t-214 56.5q-151 0 -235 -116t-84 -294z" />
<glyph unicode="&#xf1;" horiz-adv-x="1064" d="M180 0v977h107v-156q58 79 142 128.5t181 49.5q145 0 214 -83t69 -224v-692h-107v670q0 113 -46 173t-152 60q-86 0 -168 -57t-133 -135v-711h-107zM252 1188q29 42 74.5 75t99.5 33q40 0 75 -21.5t66.5 -43t61.5 -21.5q56 0 112 70l58 -59q-86 -105 -178 -105 q-39 0 -73.5 21t-66.5 42t-63 21q-22 0 -46 -13.5t-34 -23t-31 -30.5z" />
<glyph unicode="&#xf2;" horiz-adv-x="1058" d="M86 487q0 96 26 184.5t77 163t138 119.5t197 45q111 0 199 -44.5t141.5 -118t81 -162t27.5 -182.5q0 -75 -16.5 -148t-52.5 -139.5t-87.5 -117t-126.5 -80.5t-164 -30q-111 0 -197.5 44.5t-138 119t-78 162.5t-26.5 184zM199 492q0 -114 35 -207.5t111.5 -154 t182.5 -60.5q107 0 184 59t112.5 151.5t35.5 206.5q0 112 -37.5 206t-116.5 154t-186 60q-65 0 -118.5 -22t-90.5 -61t-62.5 -91.5t-37.5 -113t-12 -127.5zM223 1356h160l199 -250h-95z" />
<glyph unicode="&#xf3;" horiz-adv-x="1058" d="M86 487q0 96 26 184.5t77 163t138 119.5t197 45q111 0 199 -44.5t141.5 -118t81 -162t27.5 -182.5q0 -75 -16.5 -148t-52.5 -139.5t-87.5 -117t-126.5 -80.5t-164 -30q-111 0 -197.5 44.5t-138 119t-78 162.5t-26.5 184zM199 492q0 -114 35 -207.5t111.5 -154 t182.5 -60.5q107 0 184 59t112.5 151.5t35.5 206.5q0 112 -37.5 206t-116.5 154t-186 60q-65 0 -118.5 -22t-90.5 -61t-62.5 -91.5t-37.5 -113t-12 -127.5zM477 1106l199 250h160l-267 -250h-92z" />
<glyph unicode="&#xf4;" horiz-adv-x="1058" d="M86 487q0 96 26 184.5t77 163t138 119.5t197 45q111 0 199 -44.5t141.5 -118t81 -162t27.5 -182.5q0 -75 -16.5 -148t-52.5 -139.5t-87.5 -117t-126.5 -80.5t-164 -30q-111 0 -197.5 44.5t-138 119t-78 162.5t-26.5 184zM199 492q0 -114 35 -207.5t111.5 -154 t182.5 -60.5q107 0 184 59t112.5 151.5t35.5 206.5q0 112 -37.5 206t-116.5 154t-186 60q-65 0 -118.5 -22t-90.5 -61t-62.5 -91.5t-37.5 -113t-12 -127.5zM250 1108l244 301h69l244 -301h-100l-181 192l-176 -192h-100z" />
<glyph unicode="&#xf5;" horiz-adv-x="1058" d="M86 487q0 96 26 184.5t77 163t138 119.5t197 45q111 0 199 -44.5t141.5 -118t81 -162t27.5 -182.5q0 -75 -16.5 -148t-52.5 -139.5t-87.5 -117t-126.5 -80.5t-164 -30q-111 0 -197.5 44.5t-138 119t-78 162.5t-26.5 184zM199 492q0 -114 35 -207.5t111.5 -154 t182.5 -60.5q107 0 184 59t112.5 151.5t35.5 206.5q0 112 -37.5 206t-116.5 154t-186 60q-65 0 -118.5 -22t-90.5 -61t-62.5 -91.5t-37.5 -113t-12 -127.5zM256 1188q29 42 74.5 75t99.5 33q40 0 75 -21.5t66.5 -43t61.5 -21.5q56 0 112 70l58 -59q-86 -105 -178 -105 q-39 0 -73.5 21t-66.5 42t-63 21q-22 0 -46 -13.5t-34 -23t-31 -30.5z" />
<glyph unicode="&#xf6;" horiz-adv-x="1058" d="M86 487q0 96 26 184.5t77 163t138 119.5t197 45q111 0 199 -44.5t141.5 -118t81 -162t27.5 -182.5q0 -75 -16.5 -148t-52.5 -139.5t-87.5 -117t-126.5 -80.5t-164 -30q-111 0 -197.5 44.5t-138 119t-78 162.5t-26.5 184zM199 492q0 -114 35 -207.5t111.5 -154 t182.5 -60.5q107 0 184 59t112.5 151.5t35.5 206.5q0 112 -37.5 206t-116.5 154t-186 60q-65 0 -118.5 -22t-90.5 -61t-62.5 -91.5t-37.5 -113t-12 -127.5zM274 1196q0 34 24 58t56 24q34 0 58 -24t24 -58q0 -35 -24 -59.5t-58 -24.5q-33 0 -56.5 24.5t-23.5 59.5zM621 1196 q0 34 23.5 58t55.5 24q34 0 59 -24t25 -58q0 -35 -25 -59.5t-59 -24.5q-32 0 -55.5 24.5t-23.5 59.5z" />
<glyph unicode="&#xf7;" horiz-adv-x="1163" d="M84 496v92h995v-92h-995zM492 203q0 35 25.5 60.5t60.5 25.5t60.5 -25.5t25.5 -60.5t-25.5 -60.5t-60.5 -25.5t-60.5 25.5t-25.5 60.5zM492 881q0 34 25.5 60t60.5 26t60.5 -26t25.5 -60q0 -37 -25.5 -62.5t-60.5 -25.5t-60.5 25.5t-25.5 62.5z" />
<glyph unicode="&#xf8;" horiz-adv-x="1058" d="M86 487q0 96 26 184.5t77 163t138 119.5t197 45q136 0 236 -65l121 182l65 -43l-125 -188q74 -73 113 -177.5t39 -215.5q0 -75 -16.5 -148t-52.5 -139.5t-87.5 -117t-126.5 -80.5t-164 -30q-148 0 -252 80l-106 -161l-64 43l113 170q-65 71 -98 171t-33 207zM197 492 q0 -179 79 -295l431 655q-75 57 -187 57q-81 0 -144 -33.5t-101.5 -92t-58 -132.5t-19.5 -159zM328 139q77 -71 200 -71q107 0 184.5 59.5t113.5 152.5t36 207q0 193 -98 312z" />
<glyph unicode="&#xf9;" horiz-adv-x="1062" d="M170 287v690h106v-668q0 -114 46.5 -174.5t154.5 -60.5q51 0 102.5 21.5t90 54.5t65.5 63t41 55v709h107v-789q0 -121 18 -188h-108q-15 82 -15 160q-27 -43 -67 -81t-109.5 -70t-146.5 -32q-146 0 -215.5 84.5t-69.5 225.5zM227 1356h160l199 -250h-94z" />
<glyph unicode="&#xfa;" horiz-adv-x="1062" d="M170 287v690h106v-668q0 -114 46.5 -174.5t154.5 -60.5q51 0 102.5 21.5t90 54.5t65.5 63t41 55v709h107v-789q0 -121 18 -188h-108q-15 82 -15 160q-27 -43 -67 -81t-109.5 -70t-146.5 -32q-146 0 -215.5 84.5t-69.5 225.5zM481 1106l199 250h160l-267 -250h-92z" />
<glyph unicode="&#xfb;" horiz-adv-x="1062" d="M170 287v690h106v-668q0 -114 46.5 -174.5t154.5 -60.5q51 0 102.5 21.5t90 54.5t65.5 63t41 55v709h107v-789q0 -121 18 -188h-108q-15 82 -15 160q-27 -43 -67 -81t-109.5 -70t-146.5 -32q-146 0 -215.5 84.5t-69.5 225.5zM254 1108l244 301h69l244 -301h-100l-181 192 l-176 -192h-100z" />
<glyph unicode="&#xfc;" horiz-adv-x="1062" d="M170 287v690h106v-668q0 -114 46.5 -174.5t154.5 -60.5q51 0 102.5 21.5t90 54.5t65.5 63t41 55v709h107v-789q0 -121 18 -188h-108q-15 82 -15 160q-27 -43 -67 -81t-109.5 -70t-146.5 -32q-146 0 -215.5 84.5t-69.5 225.5zM276 1196q0 34 24 58t56 24q34 0 58 -24 t24 -58q0 -35 -24 -59.5t-58 -24.5q-33 0 -56.5 24.5t-23.5 59.5zM623 1196q0 34 23.5 58t55.5 24q34 0 59 -24t25 -58q0 -35 -25 -59.5t-59 -24.5q-32 0 -55.5 24.5t-23.5 59.5z" />
<glyph unicode="&#xfd;" horiz-adv-x="921" d="M29 -463l14 90q42 -6 68 -6q98 0 152.5 58.5t103.5 187.5l49 139l-367 971h117l307 -838l301 838h113l-420 -1118q-24 -63 -44 -105.5t-51 -89t-65.5 -73.5t-85 -44.5t-112.5 -17.5q-48 0 -80 8zM418 1106l198 250h160l-266 -250h-92z" />
<glyph unicode="&#xfe;" horiz-adv-x="1052" d="M180 -449v1924h107v-605q102 129 276 129q128 0 220 -65.5t137 -179t45 -262.5q0 -142 -51.5 -258t-152.5 -186.5t-233 -70.5q-150 0 -241 84v-510h-107zM287 160q90 -90 235 -90q106 0 182.5 60t112 152.5t35.5 204.5q0 85 -17.5 158t-53 132t-96 92.5t-140.5 33.5 q-69 0 -140 -36t-118 -97v-610z" />
<glyph unicode="&#xff;" horiz-adv-x="921" d="M29 -463l14 90q42 -6 68 -6q98 0 152.5 58.5t103.5 187.5l49 139l-367 971h117l307 -838l301 838h113l-420 -1118q-24 -63 -44 -105.5t-51 -89t-65.5 -73.5t-85 -44.5t-112.5 -17.5q-48 0 -80 8zM215 1196q0 34 24 58t56 24q34 0 58 -24t24 -58q0 -35 -24 -59.5 t-58 -24.5q-33 0 -56.5 24.5t-23.5 59.5zM561 1196q0 34 24 58t56 24q34 0 59 -24t25 -58q0 -35 -25 -59.5t-59 -24.5q-33 0 -56.5 24.5t-23.5 59.5z" />
<glyph unicode="&#x152;" horiz-adv-x="1775" d="M111 680q0 142 45.5 269.5t128.5 225t208 154.5t275 57q117 0 203 -22h669v-96h-557v-492h490v-96h-490v-584h572v-96h-684q-84 -23 -201 -23q-150 0 -275.5 57t-208.5 153.5t-129 223.5t-46 269zM227 684q0 -123 36.5 -233.5t104 -195t170.5 -134t228 -49.5 q117 0 205 32v1156q-94 32 -203 32q-124 0 -227.5 -49t-171 -132.5t-105 -193.5t-37.5 -233z" />
<glyph unicode="&#x153;" horiz-adv-x="1746" d="M86 487q0 96 26 184.5t77 163t138 119.5t197 45q142 0 242.5 -73t146.5 -197q43 125 139.5 197.5t225.5 72.5q172 0 270.5 -118t98.5 -308q0 -35 -2 -53h-674v-22q1 -87 20 -161.5t57.5 -135.5t103 -96t148.5 -35q85 0 160.5 27.5t122.5 64.5l47 -84q-141 -101 -334 -101 q-141 0 -240.5 75t-140.5 198q-48 -125 -148 -199t-241 -74q-111 0 -197.5 44.5t-138 119t-78 162.5t-26.5 184zM199 492q0 -114 35 -207.5t111.5 -154t182.5 -60.5q107 0 184 59t112.5 151.5t35.5 206.5q0 112 -37.5 206t-116.5 154t-186 60q-65 0 -118.5 -22t-90.5 -61 t-62.5 -91.5t-37.5 -113t-12 -127.5zM979 608h561q-1 78 -27.5 143.5t-88.5 110.5t-150 45q-122 0 -198 -83t-97 -216z" />
<glyph unicode="&#x178;" horiz-adv-x="1099" d="M41 1364h127l387 -737h4l387 737h115l-453 -850v-514h-110v514zM295 1550q0 34 24 58t56 24q34 0 58 -24t24 -58q0 -35 -24 -59.5t-58 -24.5q-33 0 -56.5 24.5t-23.5 59.5zM641 1550q0 34 24 58t56 24q34 0 59 -24t25 -58q0 -35 -25 -59.5t-59 -24.5q-33 0 -56.5 24.5 t-23.5 59.5z" />
<glyph unicode="&#x2c6;" horiz-adv-x="1024" d="M233 1108l244 301h70l244 -301h-101l-180 192l-176 -192h-101z" />
<glyph unicode="&#x2dc;" horiz-adv-x="1024" d="M240 1188q29 42 74.5 75t99.5 33q32 0 61 -13.5t47.5 -29.5t44 -29.5t49.5 -13.5q57 0 113 70l57 -59q-86 -105 -178 -105q-39 0 -73.5 21t-66 42t-62.5 21q-22 0 -46 -13.5t-34 -23t-31 -30.5z" />
<glyph unicode="&#x2000;" horiz-adv-x="907" />
<glyph unicode="&#x2001;" horiz-adv-x="1815" />
<glyph unicode="&#x2002;" horiz-adv-x="907" />
<glyph unicode="&#x2003;" horiz-adv-x="1815" />
<glyph unicode="&#x2004;" horiz-adv-x="605" />
<glyph unicode="&#x2005;" horiz-adv-x="453" />
<glyph unicode="&#x2006;" horiz-adv-x="302" />
<glyph unicode="&#x2007;" horiz-adv-x="302" />
<glyph unicode="&#x2008;" horiz-adv-x="226" />
<glyph unicode="&#x2009;" horiz-adv-x="363" />
<glyph unicode="&#x200a;" horiz-adv-x="100" />
<glyph unicode="&#x2010;" horiz-adv-x="616" d="M113 545v94h391v-94h-391z" />
<glyph unicode="&#x2011;" horiz-adv-x="616" d="M113 545v94h391v-94h-391z" />
<glyph unicode="&#x2012;" horiz-adv-x="616" d="M113 545v94h391v-94h-391z" />
<glyph unicode="&#x2013;" horiz-adv-x="1050" d="M113 522v92h825v-92h-825z" />
<glyph unicode="&#x2014;" horiz-adv-x="1671" d="M113 522v92h1446v-92h-1446z" />
<glyph unicode="&#x2018;" horiz-adv-x="397" d="M100 1079q0 89 55 174t128 140l41 -43q-97 -84 -97 -160q0 -32 22.5 -68.5t22.5 -66.5q0 -35 -22.5 -58.5t-56.5 -23.5q-39 0 -66 28t-27 78z" />
<glyph unicode="&#x2019;" horiz-adv-x="397" d="M74 1006q96 83 96 161q0 32 -22.5 68t-22.5 65q0 36 23 60t57 24q39 0 65.5 -28.5t26.5 -77.5q0 -90 -54.5 -174t-127.5 -139z" />
<glyph unicode="&#x201a;" horiz-adv-x="397" d="M74 -215q96 83 96 162q0 32 -22.5 68t-22.5 65q0 36 23 60t57 24q38 0 65 -29t27 -78q0 -90 -54.5 -174t-127.5 -139z" />
<glyph unicode="&#x201c;" horiz-adv-x="694" d="M100 1079q0 89 55 174t128 140l41 -43q-97 -84 -97 -160q0 -32 22.5 -68.5t22.5 -66.5q0 -35 -22.5 -58.5t-56.5 -23.5q-39 0 -66 28t-27 78zM395 1079q0 89 55 174t128 140l40 -43q-96 -83 -96 -160q0 -32 22.5 -68.5t22.5 -66.5q0 -35 -23 -58.5t-57 -23.5 q-39 0 -65.5 28t-26.5 78z" />
<glyph unicode="&#x201d;" horiz-adv-x="694" d="M74 1006q96 83 96 161q0 32 -22.5 68t-22.5 65q0 36 23 60t57 24q39 0 65.5 -28.5t26.5 -77.5q0 -90 -54.5 -174t-127.5 -139zM371 1006q96 83 96 161q0 32 -22.5 68t-22.5 65q0 36 23 60t57 24q39 0 65.5 -28.5t26.5 -77.5q0 -90 -54.5 -174t-127.5 -139z" />
<glyph unicode="&#x201e;" horiz-adv-x="694" d="M74 -215q96 83 96 162q0 32 -22.5 68t-22.5 65q0 36 23 60t57 24q38 0 65 -29t27 -78q0 -90 -54.5 -174t-127.5 -139zM371 -215q96 83 96 162q0 32 -22.5 68t-22.5 65q0 36 23 60t57 24q38 0 65 -29t27 -78q0 -90 -54.5 -174t-127.5 -139z" />
<glyph unicode="&#x2022;" horiz-adv-x="647" d="M123 586q0 85 58 142.5t143 57.5t143.5 -57.5t58.5 -142.5t-58.5 -143t-143.5 -58t-143 58t-58 143z" />
<glyph unicode="&#x2026;" horiz-adv-x="1157" d="M104 76q0 38 27 65t64 27t63.5 -27t26.5 -65t-26.5 -66t-63.5 -28t-64 28t-27 66zM487 76q0 38 27 65t64 27q38 0 64 -27t26 -65q0 -39 -26 -66.5t-64 -27.5q-37 0 -64 28t-27 66zM870 76q0 38 28 65t65 27t63.5 -27t26.5 -65t-26.5 -66t-63.5 -28t-65 28t-28 66z" />
<glyph unicode="&#x202f;" horiz-adv-x="363" />
<glyph unicode="&#x2039;" horiz-adv-x="593" d="M100 502l283 387h113l-281 -387l281 -385h-113z" />
<glyph unicode="&#x203a;" horiz-adv-x="593" d="M98 117l279 385l-279 389h113l283 -389l-283 -385h-113z" />
<glyph unicode="&#x205f;" horiz-adv-x="453" />
<glyph unicode="&#x20ac;" horiz-adv-x="1187" d="M84 489v89h152q-7 61 -7 106q0 26 4 84h-149v88h162q20 110 63.5 203.5t110.5 167.5t164 116.5t213 42.5q177 0 301 -81l-51 -88q-119 75 -254 75q-91 0 -166.5 -35t-127.5 -97t-87 -138t-52 -166h379v-88h-389q-4 -29 -4 -82q0 -38 4 -108h389v-89h-372 q19 -86 54 -158.5t87.5 -131t127 -92t163.5 -33.5q147 0 262 80l53 -80q-138 -97 -317 -97q-114 0 -209 40.5t-161.5 112.5t-111 162.5t-65.5 196.5h-166z" />
<glyph unicode="&#x2122;" horiz-adv-x="1427" d="M88 1290v74h428v-74h-172v-518h-86v518h-170zM602 772l55 592h99l145 -363q33 -80 47 -137h4q5 38 47 140l146 360h98l57 -592h-83l-31 363q-6 92 -6 137h-4q-20 -81 -50 -152l-143 -348h-74l-137 338q-32 76 -53 162h-2q0 -43 -8 -142l-29 -358h-78z" />
<glyph unicode="&#x25fc;" horiz-adv-x="972" d="M0 0v973h973v-973h-973z" />
<glyph unicode="&#xfb01;" horiz-adv-x="1050" d="M43 891v86h170v162q0 165 95 261.5t263 96.5q164 0 289 -92l-53 -84q-106 82 -242 82q-118 0 -183 -71t-65 -206v-149h547v-977h-104v891h-443v-891h-104v891h-170z" />
<glyph unicode="&#xfb02;" horiz-adv-x="1069" d="M43 891v86h170v166q0 169 94 261.5t258 92.5q177 0 320 -47v-1450h-107v1374q-89 29 -219 29q-121 0 -181.5 -70t-60.5 -205v-151h244v-86h-244v-891h-104v891h-170z" />
<glyph unicode="&#xfb03;" horiz-adv-x="1603" d="M43 891v86h174v141q0 169 97.5 270t265.5 101q171 0 282 -94q94 102 271 102q161 0 286 -92l-53 -84q-102 82 -240 82q-120 0 -183.5 -70.5t-63.5 -206.5v-149h538v-977h-106v891h-432v-891h-107v891h-448v-891h-107v891h-174zM324 977h448v162q0 97 35 172 q-92 84 -232 84q-118 0 -184.5 -75.5t-66.5 -227.5v-115z" />
<glyph unicode="&#xfb04;" horiz-adv-x="1628" d="M43 891v86h174v141q0 169 97.5 270t265.5 101q171 0 278 -94q94 102 268 102q179 0 318 -47v-1450h-105v1374q-89 29 -219 29q-241 0 -241 -275v-151h254v-86h-254v-891h-107v891h-448v-891h-107v891h-174zM324 977h448v166q0 89 33 170q-90 82 -230 82 q-118 0 -184.5 -75.5t-66.5 -227.5v-115z" />
</font>
</defs>
</svg>
