<?xml version="1.0" encoding="utf-8"?>
<!-- Generator: Adobe Illustrator 17.1.0, SVG Export Plug-In . SVG Version: 6.00 Build 0)  -->
<!DOCTYPE svg PUBLIC "-//W3C//DTD SVG 1.1//EN" "http://www.w3.org/Graphics/SVG/1.1/DTD/svg11.dtd">
<svg xmlns="http://www.w3.org/2000/svg" xmlns:xlink="http://www.w3.org/1999/xlink" version="1.1" id="Layer_1" x="0px" y="0px" viewBox="0 0 127.9 72.6" xml:space="preserve">
<text transform="matrix(1 0 0 1 55.0425 50.056)" fill="#231F20" font-family="'KievitOT-Medium'" font-size="36">SKYi</text>
<line fill="none" stroke="#231F20" stroke-miterlimit="10" x1="55.1" y1="60.1" x2="127.4" y2="60.1"/>
<line fill="none" stroke="#231F20" stroke-miterlimit="10" x1="55.1" y1="16.1" x2="127.4" y2="16.1"/>
<path fill="#231F20" d="M20,10.9c0-1.3,1.1-2.4,2.5-2.4c1.4,0,2.5,1.1,2.5,2.4s-1.1,2.4-2.5,2.4C21.1,13.4,20,12.3,20,10.9z"/>
<g>
	<path fill="#231F20" d="M25,16.1c0,0,0,0.7-0.1,1.9c0,1.2-0.1,2.9-0.1,5c0,2.1-0.1,4.5-0.1,7c0,2.6,0,5.3,0,8.1c0,2.7,0,5.5,0,8.1   c0,2.6,0.1,5,0.1,7c0,2.1,0.1,3.8,0.1,5c0,1.2,0.1,1.9,0.1,1.9h-5c0,0,0-0.7,0.1-1.9c0-1.2,0.1-2.9,0.1-5c0-2.1,0.1-4.5,0.1-7   c0-2.6,0-5.3,0-8.1c0-2.7,0-5.5,0-8.1c0-2.6-0.1-5-0.1-7c0-2.1-0.1-3.8-0.1-5c0-1.2-0.1-1.9-0.1-1.9H25z"/>
</g>
<g>
	<path fill="#231F20" d="M44.5,40.6c0,0-0.7,0-1.9-0.1c-1.2,0-2.9-0.1-5-0.1c-2.1,0-4.5-0.1-7-0.1c-2.6,0-5.3,0-8.1,0   c-2.7,0-5.5,0-8.1,0c-2.6,0-5,0.1-7,0.1c-2.1,0-3.8,0.1-5,0.1c-1.2,0-1.9,0.1-1.9,0.1l0-5c0,0,0.7,0,1.9,0.1c1.2,0,2.9,0.1,5,0.1   c2.1,0,4.5,0.1,7,0.1c2.6,0,5.3,0,8.1,0c2.7,0,5.5,0,8.1,0c2.6,0,5-0.1,7-0.1c2.1,0,3.8-0.1,5-0.1c1.2,0,1.9-0.1,1.9-0.1V40.6z"/>
</g>
<g>
	<path fill="#231F20" d="M39.8,24.3c0,0-0.5,0.5-1.4,1.3c-0.9,0.8-2.1,2-3.6,3.4c-1.5,1.4-3.2,3.1-5,4.9C28,35.7,26,37.7,24,39.6   c-1.9,2-3.9,3.9-5.7,5.7c-1.8,1.8-3.5,3.6-4.9,5C12,51.9,10.8,53.1,10,54c-0.8,0.9-1.3,1.4-1.3,1.4l-3.5-3.5c0,0,0.5-0.5,1.4-1.3   c0.9-0.8,2.1-2,3.6-3.4c1.5-1.4,3.2-3.1,5-4.9c1.8-1.8,3.8-3.7,5.7-5.7c1.9-2,3.9-3.9,5.7-5.7c1.8-1.8,3.5-3.6,4.9-5   c1.4-1.5,2.6-2.7,3.4-3.6c0.8-0.9,1.3-1.4,1.3-1.4L39.8,24.3z"/>
</g>
<g>
	<path fill="#231F20" d="M36.3,55.4c0,0-0.5-0.5-1.3-1.4c-0.8-0.9-2-2.1-3.4-3.6c-1.4-1.5-3.1-3.2-4.9-5c-1.8-1.8-3.7-3.8-5.7-5.7   c-2-1.9-3.9-3.9-5.7-5.7c-1.8-1.8-3.6-3.5-5-4.9c-1.5-1.4-2.7-2.6-3.6-3.4c-0.9-0.8-1.4-1.3-1.4-1.3l3.5-3.5c0,0,0.5,0.5,1.3,1.4   c0.8,0.9,2,2.1,3.4,3.6c1.4,1.5,3.1,3.2,4.9,5c1.8,1.8,3.7,3.8,5.7,5.7c2,1.9,3.9,3.9,5.7,5.7c1.8,1.8,3.6,3.5,5,4.9   c1.5,1.4,2.7,2.6,3.6,3.4c0.9,0.8,1.4,1.3,1.4,1.3L36.3,55.4z"/>
</g>
</svg>
